<svg style="display: none;">
  <symbol id="cabinet"  xmlns="http://www.w3.org/2000/svg" viewBox="0 0 15 15" >
    <path d="M13.125 0H6.875C6.37772 0 5.90081 0.197544 5.54917 0.549175C5.19754 0.900806 5 1.37772 5 1.875V2.5C5 2.66576 5.06585 2.82473 5.18306 2.94194C5.30027 3.05915 5.45924 3.125 5.625 3.125C5.79076 3.125 5.94973 3.05915 6.06694 2.94194C6.18415 2.82473 6.25 2.66576 6.25 2.5V1.875C6.25 1.70924 6.31585 1.55027 6.43306 1.43306C6.55027 1.31585 6.70924 1.25 6.875 1.25H13.125C13.2908 1.25 13.4497 1.31585 13.5669 1.43306C13.6842 1.55027 13.75 1.70924 13.75 1.875V13.125C13.75 13.2908 13.6842 13.4497 13.5669 13.5669C13.4497 13.6842 13.2908 13.75 13.125 13.75H6.875C6.70924 13.75 6.55027 13.6842 6.43306 13.5669C6.31585 13.4497 6.25 13.2908 6.25 13.125V12.5C6.25 12.3342 6.18415 12.1753 6.06694 12.0581C5.94973 11.9408 5.79076 11.875 5.625 11.875C5.45924 11.875 5.30027 11.9408 5.18306 12.0581C5.06585 12.1753 5 12.3342 5 12.5V13.125C5 13.6223 5.19754 14.0992 5.54917 14.4508C5.90081 14.8025 6.37772 15 6.875 15H13.125C13.6223 15 14.0992 14.8025 14.4508 14.4508C14.8025 14.0992 15 13.6223 15 13.125V1.875C15 1.37772 14.8025 0.900806 14.4508 0.549175C14.0992 0.197544 13.6223 0 13.125 0Z" ></path>
    <path d="M8.05 9.7124C7.93359 9.8295 7.86825 9.98791 7.86825 10.153C7.86825 10.3181 7.93359 10.4765 8.05 10.5936C8.1671 10.7101 8.32551 10.7754 8.49062 10.7754C8.65574 10.7754 8.81415 10.7101 8.93125 10.5936L10.7 8.8249C11.0511 8.47333 11.2484 7.99677 11.2484 7.4999C11.2484 7.00302 11.0511 6.52646 10.7 6.1749L8.93125 4.40615C8.81169 4.30375 8.65789 4.25025 8.50059 4.25633C8.34329 4.2624 8.19408 4.32761 8.08277 4.43892C7.97146 4.55023 7.90626 4.69944 7.90018 4.85674C7.8941 5.01403 7.94761 5.16783 8.05 5.2874L9.63125 6.8749H0.625C0.45924 6.8749 0.300269 6.94074 0.183058 7.05795C0.0658481 7.17516 0 7.33414 0 7.4999C0 7.66566 0.0658481 7.82463 0.183058 7.94184C0.300269 8.05905 0.45924 8.1249 0.625 8.1249H9.63125L8.05 9.7124Z"></path>
  </symbol>
  <symbol id="telegram" xmlns="http://www.w3.org/2000/svg" viewBox="0 0 21 18" >
    <path d="M19.5825 0.115803L0.98057 7.28905C-0.288937 7.79895 -0.281593 8.50714 0.747653 8.82295L5.52352 10.3128L16.5735 3.34098C17.096 3.02308 17.5734 3.1941 17.181 3.54242L8.22831 11.6222H8.22621L8.22831 11.6232L7.89886 16.546C8.38149 16.546 8.59447 16.3246 8.86516 16.0633L11.1849 13.8076L16.0101 17.3717C16.8998 17.8616 17.5387 17.6098 17.7601 16.5481L20.9276 1.62033C21.2518 0.320393 20.4313 -0.268197 19.5825 0.115803V0.115803Z"></path>
  </symbol>
  <symbol id="viber" xmlns="http://www.w3.org/2000/svg" viewBox="0 0 21 21" >
    <g clip-path="url(#clip0_1_7280)">
      <path fill-rule="evenodd" clip-rule="evenodd" d="M9.97421 0.00342898C8.28896 0.0237727 4.6658 0.30071 2.6393 2.15987C1.13189 3.65349 0.605581 5.86177 0.543894 8.59243C0.492706 11.3132 0.431019 16.4228 5.35618 17.8141V19.9331C5.35618 19.9331 5.32533 20.781 5.88577 20.9549C6.45789 21.136 6.82585 20.719 7.3086 20.172C7.40839 20.0589 7.51308 19.9403 7.62549 19.8202L8.8494 18.4362C12.2192 18.7164 14.8003 18.0707 15.0976 17.9748C15.1578 17.9556 15.2426 17.9342 15.3477 17.9077C16.435 17.6337 19.6883 16.8139 20.2622 12.1539C20.908 6.87634 19.9479 3.55112 18.2147 2.04699H18.2042C17.6812 1.5653 15.5792 0.0336165 10.8831 0.016554C10.8831 0.016554 10.5346 -0.00641477 9.97421 0.00342898ZM10.032 1.48721C10.5104 1.48393 10.8011 1.50427 10.8011 1.50427C14.776 1.51477 16.6732 2.71112 17.1208 3.11405C18.5803 4.36487 19.3323 7.36262 18.7817 11.7687C18.3104 15.6182 15.7275 16.2186 14.7981 16.4346C14.7854 16.4376 14.7729 16.4405 14.7608 16.4433C14.6759 16.4631 14.6068 16.4797 14.5568 16.4956C14.3107 16.5744 12.0375 17.1348 9.17358 16.9504C9.17358 16.9504 7.04077 19.5242 6.37402 20.1871C6.26836 20.3032 6.14499 20.3373 6.06624 20.3203C5.95336 20.2927 5.91924 20.1529 5.9258 19.9613L5.94615 16.4445C1.91341 15.3294 2.00348 11.2286 2.05468 8.89793C2.05651 8.81454 2.05829 8.73342 2.05983 8.65477C2.11102 6.37824 2.53824 4.5158 3.81005 3.25449C5.52221 1.7064 8.59871 1.49771 10.0306 1.48721H10.032Z" ></path>
      <path d="M6.88786 4.36487C6.70211 4.33773 6.51266 4.37501 6.35105 4.47052H6.33727C5.96207 4.69046 5.62407 4.96843 5.33583 5.29412C5.0963 5.57105 4.96636 5.85127 4.93224 6.12099C4.91189 6.28177 4.92568 6.44255 4.97358 6.59612L4.99064 6.60662C5.26036 7.39937 5.61277 8.16193 6.04327 8.87987C6.59782 9.88849 7.28027 10.8213 8.07371 11.6551L8.09733 11.6893L8.13474 11.7168L8.15836 11.7444L8.18593 11.768C9.0228 12.5638 9.95786 13.2494 10.9684 13.8083C12.1234 14.437 12.8243 14.7343 13.245 14.8576V14.8642C13.3683 14.9016 13.4806 14.9187 13.5934 14.9187C13.9519 14.8924 14.2913 14.7469 14.5575 14.5052C14.8817 14.2169 15.1565 13.8775 15.3712 13.5005V13.494C15.5727 13.1146 15.5044 12.7557 15.2137 12.5129C14.6315 12.0039 14.0019 11.5519 13.3336 11.163C12.886 10.9201 12.4312 11.0671 12.2468 11.3132L11.8537 11.8087C11.6522 12.0548 11.2861 12.0207 11.2861 12.0207L11.2756 12.0272C8.54489 11.3296 7.81646 8.56487 7.81646 8.56487C7.81646 8.56487 7.78233 8.18884 8.03499 7.99721L8.52718 7.60084C8.76277 7.40921 8.92683 6.95509 8.67418 6.50687C8.28791 5.83759 7.83687 5.20785 7.32755 4.62671C7.21621 4.48971 7.06 4.39649 6.88655 4.36355L6.88786 4.36487Z"  ></path>
      <path d="M10.347 3.76309C10.3126 3.76274 10.2785 3.7692 10.2466 3.7821C10.2147 3.79499 10.1857 3.81407 10.1613 3.83823C10.1368 3.86239 10.1174 3.89115 10.1041 3.92285C10.0908 3.95456 10.0839 3.98858 10.0838 4.02296C10.0838 4.16996 10.2032 4.28612 10.347 4.28612C10.9976 4.27374 11.6443 4.39031 12.2497 4.62909C12.8551 4.86787 13.4073 5.22415 13.8743 5.67737C14.8278 6.60334 15.2925 7.84759 15.3102 9.47443C15.3102 9.61815 15.4263 9.73759 15.5733 9.73759V9.72709C15.6426 9.72726 15.7092 9.70004 15.7585 9.65136C15.8077 9.60268 15.8358 9.53649 15.8365 9.46721C15.8684 8.70146 15.7442 7.93724 15.4715 7.22098C15.1988 6.50471 14.7834 5.85138 14.2503 5.30068C13.2115 4.28546 11.8951 3.76309 10.347 3.76309Z" ></path>
      <path d="M10.8011 5.14449C10.4526 5.14449 10.4526 5.6708 10.8044 5.6708C11.2377 5.67783 11.6654 5.77018 12.063 5.94258C12.4606 6.11497 12.8203 6.36403 13.1216 6.67552C13.3964 6.97872 13.6076 7.33399 13.7427 7.7203C13.8777 8.10661 13.9339 8.51609 13.9078 8.92449C13.909 8.99361 13.9372 9.05951 13.9864 9.10808C14.0356 9.15665 14.1018 9.18403 14.1709 9.18437L14.1814 9.19815C14.2511 9.19763 14.3177 9.16974 14.3669 9.1205C14.4162 9.07126 14.4441 9.00463 14.4446 8.93499C14.4682 7.89221 14.144 7.01743 13.5081 6.31656C12.8689 5.61568 11.9771 5.22259 10.8385 5.14449H10.8011Z" ></path>
      <path d="M11.2322 6.55937C10.8733 6.54887 10.8595 7.08568 11.2152 7.09618C12.0801 7.1408 12.5001 7.57787 12.5552 8.47693C12.5564 8.54517 12.5843 8.61024 12.6329 8.6582C12.6814 8.70615 12.7469 8.73319 12.8151 8.73352H12.8256C12.8607 8.73202 12.8951 8.72354 12.9269 8.70858C12.9587 8.69362 12.9872 8.67248 13.0107 8.6464C13.0342 8.62031 13.0523 8.5898 13.0639 8.55665C13.0755 8.5235 13.0804 8.48836 13.0783 8.4533C13.0166 7.28124 12.3774 6.62105 11.2427 6.56002L11.2322 6.55937Z"  ></path>
    </g>
    <defs>
      <clipPath id="clip0_1_7280">
        <rect width="21" height="21" fill="white"></rect>
      </clipPath>
    </defs>
  </symbol>
  <symbol id="whatsapp" xmlns="http://www.w3.org/2000/svg" viewBox="0 0 21 21" >
    <g clip-path="url(#clip0_1_7273)">
      <path d="M17.9676 3.05416C16.022 1.07465 13.3326 0 10.586 0C4.74945 0 0.0572578 4.69435 0.114434 10.4068C0.114434 12.2166 0.629426 13.97 1.4878 15.5536L0 20.9267L5.55048 19.5127C7.09546 20.3612 8.81204 20.7571 10.5288 20.7571C16.3081 20.7571 21.0003 16.0626 21.0003 10.3503C21.0003 7.57889 19.9131 4.97716 17.9676 3.05416H17.9676ZM10.586 19.0038C9.04099 19.0038 7.49602 18.6079 6.17991 17.8161L5.83661 17.6464L2.51779 18.4948L3.37608 15.271L3.14721 14.9316C0.629426 10.9159 1.8311 5.5993 5.95104 3.11068C10.071 0.622135 15.3926 1.80989 17.9104 5.88211C20.4281 9.95432 19.2264 15.2143 15.1065 17.7029C13.7904 18.5513 12.1882 19.0037 10.586 19.0037V19.0038ZM15.6215 12.7258L14.992 12.443C14.992 12.443 14.0766 12.0471 13.5043 11.7643C13.4471 11.7643 13.3899 11.7077 13.3326 11.7077C13.1609 11.7077 13.0465 11.7643 12.9321 11.8209C12.9321 11.8209 12.8749 11.8774 12.0738 12.7824C12.0165 12.8955 11.9021 12.9521 11.7876 12.9521H11.7304C11.6732 12.9521 11.5588 12.8955 11.5015 12.8389L11.2154 12.7258C10.586 12.443 10.0138 12.1036 9.55598 11.6512C9.44155 11.5381 9.26986 11.425 9.15543 11.3119C8.75487 10.9159 8.35431 10.4634 8.06827 9.95441L8.01101 9.8413C7.95383 9.7847 7.95383 9.72819 7.89657 9.61508C7.89657 9.50197 7.89657 9.38886 7.95383 9.33227C7.95383 9.33227 8.1827 9.04946 8.35431 8.87984C8.46882 8.76665 8.526 8.59703 8.64043 8.48392C8.75487 8.31422 8.81212 8.088 8.75487 7.9183C8.69769 7.63549 8.01101 6.10841 7.8394 5.76908C7.72488 5.59938 7.61053 5.54286 7.43884 5.48627H6.80941C6.6949 5.48627 6.58055 5.54286 6.46603 5.54286L6.40877 5.59938C6.29434 5.65597 6.17991 5.76908 6.06547 5.82559C5.95104 5.93878 5.89378 6.05181 5.77935 6.165C5.37879 6.67403 5.14992 7.29616 5.14992 7.9183C5.14992 8.37073 5.26436 8.82324 5.43605 9.21916L5.4933 9.38886C6.0083 10.4634 6.6949 11.425 7.61053 12.2733L7.8394 12.4995C8.01101 12.6692 8.1827 12.7824 8.29713 12.952C9.49881 13.9701 10.8721 14.7054 12.4171 15.1013C12.5888 15.1578 12.8176 15.1578 12.9893 15.2144H13.5615C13.8476 15.2144 14.1909 15.1013 14.4199 14.9882C14.5915 14.8751 14.7059 14.8751 14.8203 14.7619L14.9349 14.6488C15.0493 14.5356 15.1637 14.4791 15.2782 14.366C15.3926 14.2529 15.507 14.1398 15.5643 14.0266C15.6787 13.8004 15.7359 13.5176 15.7931 13.2349V12.8389C15.7931 12.8389 15.7359 12.7824 15.6215 12.7258V12.7258Z" ></path>
    </g>
    <defs>
      <clipPath id="clip0_1_7273">
        <rect width="21" height="21"></rect>
      </clipPath>
    </defs>
  </symbol>
  <symbol id="icon-close" xmlns="http://www.w3.org/2000/svg" viewBox="0 0 48 48">
    <path d="M32.1283 16.6312C32.1283 16.425 31.9596 16.2562 31.7533 16.2562L28.6596 16.2703L24.0002 21.825L19.3455 16.275L16.2471 16.2609C16.0408 16.2609 15.8721 16.425 15.8721 16.6359C15.8721 16.725 15.9049 16.8094 15.9611 16.8797L22.0596 24.1453L15.9611 31.4062C15.9045 31.4749 15.8731 31.5609 15.8721 31.65C15.8721 31.8562 16.0408 32.025 16.2471 32.025L19.3455 32.0109L24.0002 26.4562L28.6549 32.0062L31.7486 32.0203C31.9549 32.0203 32.1236 31.8562 32.1236 31.6453C32.1236 31.5562 32.0908 31.4719 32.0346 31.4015L25.9455 24.1406L32.0439 16.875C32.1002 16.8094 32.1283 16.7203 32.1283 16.6312Z"></path>
    <path d="M24 3.04688C12.4031 3.04688 3 12.45 3 24.0469C3 35.6437 12.4031 45.0469 24 45.0469C35.5969 45.0469 45 35.6437 45 24.0469C45 12.45 35.5969 3.04688 24 3.04688ZM24 42C14.3719 42 6 33.675 6 24.0469C6 14.4188 14.3719 5.5 24 5.5C33.6281 5.5 42 14.4188 42 24.0469C42 33.675 33.6281 42 24 42Z"></path>
  </symbol>
  <symbol id="icon-arrow" xmlns="http://www.w3.org/2000/svg" viewBox="0 0 14 8">
    <path d="M13.3536 4.35355C13.5488 4.15829 13.5488 3.84171 13.3536 3.64645L10.1716 0.464466C9.97631 0.269204 9.65973 0.269204 9.46447 0.464466C9.2692 0.659728 9.2692 0.976311 9.46447 1.17157L12.2929 4L9.46447 6.82843C9.2692 7.02369 9.2692 7.34027 9.46447 7.53553C9.65973 7.7308 9.97631 7.7308 10.1716 7.53553L13.3536 4.35355ZM0 4.5H13V3.5H0V4.5Z"></path>
  </symbol>
</svg>