<svg width="185" height="73" viewBox="0 0 185 73" fill="none" xmlns="http://www.w3.org/2000/svg">
<path d="M70.131 21V2H2V70.6177H70.131V51" stroke="#FFD800" stroke-width="2.9199"/>
<path d="M55.285 28.386V41H53.245V39.827C52.8937 40.2577 52.4573 40.5807 51.936 40.796C51.426 41.0113 50.8593 41.119 50.236 41.119C49.3633 41.119 48.5757 40.9263 47.873 40.541C47.1817 40.1557 46.6377 39.6117 46.241 38.909C45.8443 38.195 45.646 37.379 45.646 36.461C45.646 35.543 45.8443 34.7327 46.241 34.03C46.6377 33.3273 47.1817 32.7833 47.873 32.398C48.5757 32.0127 49.3633 31.82 50.236 31.82C50.8367 31.82 51.3863 31.922 51.885 32.126C52.3837 32.33 52.8087 32.636 53.16 33.044V28.386H55.285ZM50.491 39.3C51.001 39.3 51.46 39.1867 51.868 38.96C52.276 38.722 52.599 38.3877 52.837 37.957C53.075 37.5263 53.194 37.0277 53.194 36.461C53.194 35.8943 53.075 35.3957 52.837 34.965C52.599 34.5343 52.276 34.2057 51.868 33.979C51.46 33.741 51.001 33.622 50.491 33.622C49.981 33.622 49.522 33.741 49.114 33.979C48.706 34.2057 48.383 34.5343 48.145 34.965C47.907 35.3957 47.788 35.8943 47.788 36.461C47.788 37.0277 47.907 37.5263 48.145 37.957C48.383 38.3877 48.706 38.722 49.114 38.96C49.522 39.1867 49.981 39.3 50.491 39.3ZM62.1449 41.119C61.2269 41.119 60.3996 40.9207 59.6629 40.524C58.9262 40.1273 58.3482 39.5777 57.9289 38.875C57.5209 38.161 57.3169 37.3563 57.3169 36.461C57.3169 35.5657 57.5209 34.7667 57.9289 34.064C58.3482 33.3613 58.9262 32.8117 59.6629 32.415C60.3996 32.0183 61.2269 31.82 62.1449 31.82C63.0742 31.82 63.9072 32.0183 64.6439 32.415C65.3806 32.8117 65.9529 33.3613 66.3609 34.064C66.7802 34.7667 66.9899 35.5657 66.9899 36.461C66.9899 37.3563 66.7802 38.161 66.3609 38.875C65.9529 39.5777 65.3806 40.1273 64.6439 40.524C63.9072 40.9207 63.0742 41.119 62.1449 41.119ZM62.1449 39.3C62.9269 39.3 63.5729 39.0393 64.0829 38.518C64.5929 37.9967 64.8479 37.311 64.8479 36.461C64.8479 35.611 64.5929 34.9253 64.0829 34.404C63.5729 33.8827 62.9269 33.622 62.1449 33.622C61.3629 33.622 60.7169 33.8827 60.2069 34.404C59.7082 34.9253 59.4589 35.611 59.4589 36.461C59.4589 37.311 59.7082 37.9967 60.2069 38.518C60.7169 39.0393 61.3629 39.3 62.1449 39.3ZM80.4799 31.82C81.6246 31.82 82.5313 32.1543 83.1999 32.823C83.8686 33.4803 84.2029 34.472 84.2029 35.798V41H82.0779V36.07C82.0779 35.2767 81.9023 34.6817 81.5509 34.285C81.1996 33.877 80.6953 33.673 80.0379 33.673C79.3239 33.673 78.7516 33.911 78.3209 34.387C77.8903 34.8517 77.6749 35.5203 77.6749 36.393V41H75.5499V36.07C75.5499 35.2767 75.3743 34.6817 75.0229 34.285C74.6716 33.877 74.1673 33.673 73.5099 33.673C72.7846 33.673 72.2066 33.9053 71.7759 34.37C71.3566 34.8347 71.1469 35.509 71.1469 36.393V41H69.0219V31.922H71.0449V33.078C71.3849 32.67 71.8099 32.3583 72.3199 32.143C72.8299 31.9277 73.3966 31.82 74.0199 31.82C74.6999 31.82 75.3006 31.9503 75.8219 32.211C76.3546 32.4603 76.7739 32.8343 77.0799 33.333C77.4539 32.857 77.9356 32.4887 78.5249 32.228C79.1143 31.956 79.7659 31.82 80.4799 31.82ZM95.5354 36.512C95.5354 36.6593 95.5241 36.869 95.5014 37.141H88.3784C88.5031 37.8097 88.8261 38.3423 89.3474 38.739C89.8801 39.1243 90.5374 39.317 91.3194 39.317C92.3168 39.317 93.1384 38.9883 93.7844 38.331L94.9234 39.64C94.5154 40.1273 93.9998 40.4957 93.3764 40.745C92.7531 40.9943 92.0504 41.119 91.2684 41.119C90.2711 41.119 89.3928 40.9207 88.6334 40.524C87.8741 40.1273 87.2848 39.5777 86.8654 38.875C86.4574 38.161 86.2534 37.3563 86.2534 36.461C86.2534 35.577 86.4518 34.7837 86.8484 34.081C87.2564 33.367 87.8174 32.8117 88.5314 32.415C89.2454 32.0183 90.0501 31.82 90.9454 31.82C91.8294 31.82 92.6171 32.0183 93.3084 32.415C94.0111 32.8003 94.5551 33.35 94.9404 34.064C95.3371 34.7667 95.5354 35.5827 95.5354 36.512ZM90.9454 33.52C90.2654 33.52 89.6874 33.724 89.2114 34.132C88.7468 34.5287 88.4634 35.0613 88.3614 35.73H93.5124C93.4218 35.0727 93.1441 34.54 92.6794 34.132C92.2148 33.724 91.6368 33.52 90.9454 33.52ZM101.657 41.119C100.739 41.119 99.9113 40.9207 99.1746 40.524C98.438 40.1273 97.86 39.5777 97.4406 38.875C97.0326 38.161 96.8286 37.3563 96.8286 36.461C96.8286 35.5657 97.0326 34.7667 97.4406 34.064C97.86 33.3613 98.438 32.8117 99.1746 32.415C99.9113 32.0183 100.739 31.82 101.657 31.82C102.586 31.82 103.419 32.0183 104.156 32.415C104.892 32.8117 105.465 33.3613 105.873 34.064C106.292 34.7667 106.502 35.5657 106.502 36.461C106.502 37.3563 106.292 38.161 105.873 38.875C105.465 39.5777 104.892 40.1273 104.156 40.524C103.419 40.9207 102.586 41.119 101.657 41.119ZM101.657 39.3C102.439 39.3 103.085 39.0393 103.595 38.518C104.105 37.9967 104.36 37.311 104.36 36.461C104.36 35.611 104.105 34.9253 103.595 34.404C103.085 33.8827 102.439 33.622 101.657 33.622C100.875 33.622 100.229 33.8827 99.7186 34.404C99.22 34.9253 98.9706 35.611 98.9706 36.461C98.9706 37.311 99.22 37.9967 99.7186 38.518C100.229 39.0393 100.875 39.3 101.657 39.3ZM108.241 35.39H112.916V37.158H108.241V35.39ZM119.895 32.36C120.727 32.36 121.468 32.5413 122.119 32.904C122.78 33.2667 123.297 33.7787 123.671 34.44C124.044 35.1013 124.231 35.864 124.231 36.728C124.231 37.592 124.044 38.36 123.671 39.032C123.297 39.6933 122.78 40.2053 122.119 40.568C121.468 40.9307 120.727 41.112 119.895 41.112C118.743 41.112 117.831 40.728 117.159 39.96V44.104H115.159V32.456H117.063V33.576C117.393 33.1707 117.799 32.8667 118.279 32.664C118.769 32.4613 119.308 32.36 119.895 32.36ZM119.671 39.4C120.407 39.4 121.009 39.1547 121.479 38.664C121.959 38.1733 122.199 37.528 122.199 36.728C122.199 35.928 121.959 35.2827 121.479 34.792C121.009 34.3013 120.407 34.056 119.671 34.056C119.191 34.056 118.759 34.168 118.375 34.392C117.991 34.6053 117.687 34.9147 117.463 35.32C117.239 35.7253 117.127 36.1947 117.127 36.728C117.127 37.2613 117.239 37.7307 117.463 38.136C117.687 38.5413 117.991 38.856 118.375 39.08C118.759 39.2933 119.191 39.4 119.671 39.4ZM129.282 32.36C130.541 32.36 131.501 32.664 132.162 33.272C132.834 33.8693 133.17 34.776 133.17 35.992V41H131.282V39.96C131.037 40.3333 130.685 40.6213 130.226 40.824C129.778 41.016 129.234 41.112 128.594 41.112C127.954 41.112 127.394 41.0053 126.914 40.792C126.434 40.568 126.061 40.264 125.794 39.88C125.538 39.4853 125.41 39.0427 125.41 38.552C125.41 37.784 125.693 37.1707 126.258 36.712C126.834 36.2427 127.735 36.008 128.962 36.008H131.17V35.88C131.17 35.2827 130.989 34.824 130.626 34.504C130.274 34.184 129.746 34.024 129.042 34.024C128.562 34.024 128.087 34.0987 127.618 34.248C127.159 34.3973 126.77 34.6053 126.45 34.872L125.666 33.416C126.114 33.0747 126.653 32.8133 127.282 32.632C127.911 32.4507 128.578 32.36 129.282 32.36ZM129.01 39.656C129.511 39.656 129.954 39.544 130.338 39.32C130.733 39.0853 131.01 38.7547 131.17 38.328V37.336H129.106C127.954 37.336 127.378 37.7147 127.378 38.472C127.378 38.8347 127.522 39.1227 127.81 39.336C128.098 39.5493 128.498 39.656 129.01 39.656ZM137.641 33.704C138.217 32.808 139.23 32.36 140.681 32.36V34.264C140.51 34.232 140.355 34.216 140.217 34.216C139.438 34.216 138.83 34.4453 138.393 34.904C137.955 35.352 137.737 36.0027 137.737 36.856V41H135.737V32.456H137.641V33.704ZM147.826 40.536C147.591 40.728 147.303 40.872 146.962 40.968C146.631 41.064 146.279 41.112 145.906 41.112C144.967 41.112 144.242 40.8667 143.73 40.376C143.218 39.8853 142.962 39.1707 142.962 38.232V34.12H141.554V32.52H142.962V30.568H144.962V32.52H147.25V34.12H144.962V38.184C144.962 38.6 145.063 38.92 145.266 39.144C145.469 39.3573 145.762 39.464 146.146 39.464C146.594 39.464 146.967 39.3467 147.266 39.112L147.826 40.536ZM154.319 32.36C155.397 32.36 156.261 32.6747 156.911 33.304C157.562 33.9333 157.887 34.8667 157.887 36.104V41H155.887V36.36C155.887 35.6133 155.711 35.0533 155.359 34.68C155.007 34.296 154.506 34.104 153.855 34.104C153.119 34.104 152.538 34.328 152.111 34.776C151.685 35.2133 151.471 35.848 151.471 36.68V41H149.471V32.456H151.375V33.56C151.706 33.1653 152.122 32.8667 152.623 32.664C153.125 32.4613 153.69 32.36 154.319 32.36ZM168.534 36.776C168.534 36.9147 168.524 37.112 168.502 37.368H161.798C161.916 37.9973 162.22 38.4987 162.71 38.872C163.212 39.2347 163.83 39.416 164.566 39.416C165.505 39.416 166.278 39.1067 166.886 38.488L167.958 39.72C167.574 40.1787 167.089 40.5253 166.502 40.76C165.916 40.9947 165.254 41.112 164.518 41.112C163.58 41.112 162.753 40.9253 162.038 40.552C161.324 40.1787 160.769 39.6613 160.374 39C159.99 38.328 159.798 37.5707 159.798 36.728C159.798 35.896 159.985 35.1493 160.358 34.488C160.742 33.816 161.27 33.2933 161.942 32.92C162.614 32.5467 163.372 32.36 164.214 32.36C165.046 32.36 165.788 32.5467 166.438 32.92C167.1 33.2827 167.612 33.8 167.974 34.472C168.348 35.1333 168.534 35.9013 168.534 36.776ZM164.214 33.96C163.574 33.96 163.03 34.152 162.582 34.536C162.145 34.9093 161.878 35.4107 161.782 36.04H166.63C166.545 35.4213 166.284 34.92 165.846 34.536C165.409 34.152 164.865 33.96 164.214 33.96ZM172.36 33.704C172.936 32.808 173.949 32.36 175.4 32.36V34.264C175.229 34.232 175.074 34.216 174.936 34.216C174.157 34.216 173.549 34.4453 173.112 34.904C172.674 35.352 172.456 36.0027 172.456 36.856V41H170.456V32.456H172.36V33.704ZM179.767 41.112C179.074 41.112 178.397 41.0213 177.735 40.84C177.074 40.6587 176.546 40.4293 176.151 40.152L176.919 38.632C177.303 38.888 177.762 39.096 178.295 39.256C178.839 39.4053 179.373 39.48 179.895 39.48C181.09 39.48 181.687 39.1653 181.687 38.536C181.687 38.2373 181.533 38.0293 181.223 37.912C180.925 37.7947 180.439 37.6827 179.767 37.576C179.063 37.4693 178.487 37.3467 178.039 37.208C177.602 37.0693 177.218 36.8293 176.887 36.488C176.567 36.136 176.407 35.6507 176.407 35.032C176.407 34.2213 176.743 33.576 177.415 33.096C178.098 32.6053 179.015 32.36 180.167 32.36C180.754 32.36 181.341 32.4293 181.927 32.568C182.514 32.696 182.994 32.872 183.367 33.096L182.599 34.616C181.874 34.1893 181.058 33.976 180.151 33.976C179.565 33.976 179.117 34.0667 178.807 34.248C178.509 34.4187 178.359 34.648 178.359 34.936C178.359 35.256 178.519 35.4853 178.839 35.624C179.17 35.752 179.677 35.8747 180.359 35.992C181.042 36.0987 181.602 36.2213 182.039 36.36C182.477 36.4987 182.85 36.7333 183.159 37.064C183.479 37.3947 183.639 37.864 183.639 38.472C183.639 39.272 183.293 39.912 182.599 40.392C181.906 40.872 180.962 41.112 179.767 41.112Z" fill="#272727"/>
</svg>
