<svg width="21" height="21" viewBox="0 0 21 21" fill="none" xmlns="http://www.w3.org/2000/svg">
<g clip-path="url(#clip0_1_7280)">
<path fill-rule="evenodd" clip-rule="evenodd" d="M9.97421 0.00342898C8.28896 0.0237727 4.6658 0.30071 2.6393 2.15987C1.13189 3.65349 0.605581 5.86177 0.543894 8.59243C0.492706 11.3132 0.431019 16.4228 5.35618 17.8141V19.9331C5.35618 19.9331 5.32533 20.781 5.88577 20.9549C6.45789 21.136 6.82585 20.719 7.3086 20.172C7.40839 20.0589 7.51308 19.9403 7.62549 19.8202L8.8494 18.4362C12.2192 18.7164 14.8003 18.0707 15.0976 17.9748C15.1578 17.9556 15.2426 17.9342 15.3477 17.9077C16.435 17.6337 19.6883 16.8139 20.2622 12.1539C20.908 6.87634 19.9479 3.55112 18.2147 2.04699H18.2042C17.6812 1.5653 15.5792 0.0336165 10.8831 0.016554C10.8831 0.016554 10.5346 -0.00641477 9.97421 0.00342898ZM10.032 1.48721C10.5104 1.48393 10.8011 1.50427 10.8011 1.50427C14.776 1.51477 16.6732 2.71112 17.1208 3.11405C18.5803 4.36487 19.3323 7.36262 18.7817 11.7687C18.3104 15.6182 15.7275 16.2186 14.7981 16.4346C14.7854 16.4376 14.7729 16.4405 14.7608 16.4433C14.6759 16.4631 14.6068 16.4797 14.5568 16.4956C14.3107 16.5744 12.0375 17.1348 9.17358 16.9504C9.17358 16.9504 7.04077 19.5242 6.37402 20.1871C6.26836 20.3032 6.14499 20.3373 6.06624 20.3203C5.95336 20.2927 5.91924 20.1529 5.9258 19.9613L5.94615 16.4445C1.91341 15.3294 2.00348 11.2286 2.05468 8.89793C2.05651 8.81454 2.05829 8.73342 2.05983 8.65477C2.11102 6.37824 2.53824 4.5158 3.81005 3.25449C5.52221 1.7064 8.59871 1.49771 10.0306 1.48721H10.032Z" fill="black" fill-opacity="0.6"/>
<path d="M6.88786 4.36487C6.70211 4.33773 6.51266 4.37501 6.35105 4.47052H6.33727C5.96207 4.69046 5.62407 4.96843 5.33583 5.29412C5.0963 5.57105 4.96636 5.85127 4.93224 6.12099C4.91189 6.28177 4.92568 6.44255 4.97358 6.59612L4.99064 6.60662C5.26036 7.39937 5.61277 8.16193 6.04327 8.87987C6.59782 9.88849 7.28027 10.8213 8.07371 11.6551L8.09733 11.6893L8.13474 11.7168L8.15836 11.7444L8.18593 11.768C9.0228 12.5638 9.95786 13.2494 10.9684 13.8083C12.1234 14.437 12.8243 14.7343 13.245 14.8576V14.8642C13.3683 14.9016 13.4806 14.9187 13.5934 14.9187C13.9519 14.8924 14.2913 14.7469 14.5575 14.5052C14.8817 14.2169 15.1565 13.8775 15.3712 13.5005V13.494C15.5727 13.1146 15.5044 12.7557 15.2137 12.5129C14.6315 12.0039 14.0019 11.5519 13.3336 11.163C12.886 10.9201 12.4312 11.0671 12.2468 11.3132L11.8537 11.8087C11.6522 12.0548 11.2861 12.0207 11.2861 12.0207L11.2756 12.0272C8.54489 11.3296 7.81646 8.56487 7.81646 8.56487C7.81646 8.56487 7.78233 8.18884 8.03499 7.99721L8.52718 7.60084C8.76277 7.40921 8.92683 6.95509 8.67418 6.50687C8.28791 5.83759 7.83687 5.20785 7.32755 4.62671C7.21621 4.48971 7.06 4.39649 6.88655 4.36355L6.88786 4.36487Z" fill="black" fill-opacity="0.6"/>
<path d="M10.347 3.76309C10.3126 3.76274 10.2785 3.7692 10.2466 3.7821C10.2147 3.79499 10.1857 3.81407 10.1613 3.83823C10.1368 3.86239 10.1174 3.89115 10.1041 3.92285C10.0908 3.95456 10.0839 3.98858 10.0838 4.02296C10.0838 4.16996 10.2032 4.28612 10.347 4.28612C10.9976 4.27374 11.6443 4.39031 12.2497 4.62909C12.8551 4.86787 13.4073 5.22415 13.8743 5.67737C14.8278 6.60334 15.2925 7.84759 15.3102 9.47443C15.3102 9.61815 15.4263 9.73759 15.5733 9.73759V9.72709C15.6426 9.72726 15.7092 9.70004 15.7585 9.65136C15.8077 9.60268 15.8358 9.53649 15.8365 9.46721C15.8684 8.70146 15.7442 7.93724 15.4715 7.22098C15.1988 6.50471 14.7834 5.85138 14.2503 5.30068C13.2115 4.28546 11.8951 3.76309 10.347 3.76309Z" fill="black" fill-opacity="0.6"/>
<path d="M10.8011 5.14449C10.4526 5.14449 10.4526 5.6708 10.8044 5.6708C11.2377 5.67783 11.6654 5.77018 12.063 5.94258C12.4606 6.11497 12.8203 6.36403 13.1216 6.67552C13.3964 6.97872 13.6076 7.33399 13.7427 7.7203C13.8777 8.10661 13.9339 8.51609 13.9078 8.92449C13.909 8.99361 13.9372 9.05951 13.9864 9.10808C14.0356 9.15665 14.1018 9.18403 14.1709 9.18437L14.1814 9.19815C14.2511 9.19763 14.3177 9.16974 14.3669 9.1205C14.4162 9.07126 14.4441 9.00463 14.4446 8.93499C14.4682 7.89221 14.144 7.01743 13.5081 6.31656C12.8689 5.61568 11.9771 5.22259 10.8385 5.14449H10.8011Z" fill="black" fill-opacity="0.6"/>
<path d="M11.2322 6.55937C10.8733 6.54887 10.8595 7.08568 11.2152 7.09618C12.0801 7.1408 12.5001 7.57787 12.5552 8.47693C12.5564 8.54517 12.5843 8.61024 12.6329 8.6582C12.6814 8.70615 12.7469 8.73319 12.8151 8.73352H12.8256C12.8607 8.73202 12.8951 8.72354 12.9269 8.70858C12.9587 8.69362 12.9872 8.67248 13.0107 8.6464C13.0342 8.62031 13.0523 8.5898 13.0639 8.55665C13.0755 8.5235 13.0804 8.48836 13.0783 8.4533C13.0166 7.28124 12.3774 6.62105 11.2427 6.56002L11.2322 6.55937Z" fill="black" fill-opacity="0.6"/>
</g>
<defs>
<clipPath id="clip0_1_7280">
<rect width="21" height="21" fill="white"/>
</clipPath>
</defs>
</svg>
