<svg width="21" height="21" viewBox="0 0 21 21" fill="none" xmlns="http://www.w3.org/2000/svg">
<g clip-path="url(#clip0_1_7273)">
<path d="M17.9676 3.05416C16.022 1.07465 13.3326 0 10.586 0C4.74945 0 0.0572578 4.69435 0.114434 10.4068C0.114434 12.2166 0.629426 13.97 1.4878 15.5536L0 20.9267L5.55048 19.5127C7.09546 20.3612 8.81204 20.7571 10.5288 20.7571C16.3081 20.7571 21.0003 16.0626 21.0003 10.3503C21.0003 7.57889 19.9131 4.97716 17.9676 3.05416H17.9676ZM10.586 19.0038C9.04099 19.0038 7.49602 18.6079 6.17991 17.8161L5.83661 17.6464L2.51779 18.4948L3.37608 15.271L3.14721 14.9316C0.629426 10.9159 1.8311 5.5993 5.95104 3.11068C10.071 0.622135 15.3926 1.80989 17.9104 5.88211C20.4281 9.95432 19.2264 15.2143 15.1065 17.7029C13.7904 18.5513 12.1882 19.0037 10.586 19.0037V19.0038ZM15.6215 12.7258L14.992 12.443C14.992 12.443 14.0766 12.0471 13.5043 11.7643C13.4471 11.7643 13.3899 11.7077 13.3326 11.7077C13.1609 11.7077 13.0465 11.7643 12.9321 11.8209C12.9321 11.8209 12.8749 11.8774 12.0738 12.7824C12.0165 12.8955 11.9021 12.9521 11.7876 12.9521H11.7304C11.6732 12.9521 11.5588 12.8955 11.5015 12.8389L11.2154 12.7258C10.586 12.443 10.0138 12.1036 9.55598 11.6512C9.44155 11.5381 9.26986 11.425 9.15543 11.3119C8.75487 10.9159 8.35431 10.4634 8.06827 9.95441L8.01101 9.8413C7.95383 9.7847 7.95383 9.72819 7.89657 9.61508C7.89657 9.50197 7.89657 9.38886 7.95383 9.33227C7.95383 9.33227 8.1827 9.04946 8.35431 8.87984C8.46882 8.76665 8.526 8.59703 8.64043 8.48392C8.75487 8.31422 8.81212 8.088 8.75487 7.9183C8.69769 7.63549 8.01101 6.10841 7.8394 5.76908C7.72488 5.59938 7.61053 5.54286 7.43884 5.48627H6.80941C6.6949 5.48627 6.58055 5.54286 6.46603 5.54286L6.40877 5.59938C6.29434 5.65597 6.17991 5.76908 6.06547 5.82559C5.95104 5.93878 5.89378 6.05181 5.77935 6.165C5.37879 6.67403 5.14992 7.29616 5.14992 7.9183C5.14992 8.37073 5.26436 8.82324 5.43605 9.21916L5.4933 9.38886C6.0083 10.4634 6.6949 11.425 7.61053 12.2733L7.8394 12.4995C8.01101 12.6692 8.1827 12.7824 8.29713 12.952C9.49881 13.9701 10.8721 14.7054 12.4171 15.1013C12.5888 15.1578 12.8176 15.1578 12.9893 15.2144H13.5615C13.8476 15.2144 14.1909 15.1013 14.4199 14.9882C14.5915 14.8751 14.7059 14.8751 14.8203 14.7619L14.9349 14.6488C15.0493 14.5356 15.1637 14.4791 15.2782 14.366C15.3926 14.2529 15.507 14.1398 15.5643 14.0266C15.6787 13.8004 15.7359 13.5176 15.7931 13.2349V12.8389C15.7931 12.8389 15.7359 12.7824 15.6215 12.7258V12.7258Z" fill="black" fill-opacity="0.6"/>
</g>
<defs>
<clipPath id="clip0_1_7273">
<rect width="21" height="21" fill="white"/>
</clipPath>
</defs>
</svg>
