<svg width="55" height="55" viewBox="0 0 55 55" fill="none" xmlns="http://www.w3.org/2000/svg">
<rect width="55" height="55" rx="16.9753" fill="white"/>
<path d="M27.237 36.33C26.423 36.33 25.664 36.165 24.96 35.835C24.2633 35.4977 23.6657 35.0357 23.167 34.449C22.6683 33.855 22.3127 33.173 22.1 32.403L24.311 31.809C24.4357 32.2783 24.6483 32.6853 24.949 33.03C25.257 33.3747 25.6163 33.6423 26.027 33.833C26.4377 34.0163 26.863 34.108 27.303 34.108C27.8823 34.108 28.4067 33.9687 28.876 33.69C29.3527 33.4113 29.7267 33.0373 29.998 32.568C30.2767 32.0987 30.416 31.5817 30.416 31.017C30.416 30.4377 30.273 29.9133 29.987 29.444C29.7083 28.9747 29.3307 28.6043 28.854 28.333C28.3847 28.0543 27.8677 27.915 27.303 27.915C26.6577 27.915 26.1113 28.0433 25.664 28.3C25.2167 28.5567 24.8683 28.8537 24.619 29.191L22.617 28.487L23.101 20.16H31.648V22.327H24.278L25.213 21.458L24.828 27.695L24.377 27.112C24.795 26.694 25.2937 26.375 25.873 26.155C26.4523 25.935 27.028 25.825 27.6 25.825C28.5827 25.825 29.459 26.0523 30.229 26.507C31.0063 26.9617 31.6187 27.5813 32.066 28.366C32.5133 29.1433 32.737 30.027 32.737 31.017C32.737 31.9997 32.484 32.8943 31.978 33.701C31.472 34.5003 30.801 35.1383 29.965 35.615C29.129 36.0917 28.2197 36.33 27.237 36.33Z" fill="black" fill-opacity="0.5"/>
</svg>
