<svg width="55" height="55" viewBox="0 0 55 55" fill="none" xmlns="http://www.w3.org/2000/svg">
<rect width="55" height="55" rx="16.9753" fill="white"/>
<path d="M26.973 36.297C26.1883 36.297 25.4513 36.1503 24.762 35.857C24.0727 35.5563 23.475 35.131 22.969 34.581C22.4703 34.031 22.1073 33.382 21.88 32.634L24.102 32.018C24.3147 32.7 24.685 33.2243 25.213 33.591C25.741 33.9503 26.3277 34.1263 26.973 34.119C27.5523 34.1117 28.062 33.976 28.502 33.712C28.942 33.448 29.2867 33.0923 29.536 32.645C29.7853 32.1903 29.91 31.6697 29.91 31.083C29.91 30.203 29.635 29.477 29.085 28.905C28.5423 28.333 27.831 28.047 26.951 28.047C26.7017 28.047 26.445 28.0837 26.181 28.157C25.9243 28.2303 25.6823 28.3257 25.455 28.443L24.377 26.628L29.965 21.689L30.207 22.349H22.507V20.16H32.033V22.349L27.391 26.815L27.369 26.067C28.3663 26.067 29.2317 26.2907 29.965 26.738C30.6983 27.178 31.263 27.7793 31.659 28.542C32.0623 29.2973 32.264 30.1443 32.264 31.083C32.264 32.095 32.0257 32.9933 31.549 33.778C31.0797 34.5627 30.4453 35.1787 29.646 35.626C28.854 36.0733 27.963 36.297 26.973 36.297Z" fill="black" fill-opacity="0.5"/>
</svg>
