<svg width="55" height="55" viewBox="0 0 55 55" fill="none" xmlns="http://www.w3.org/2000/svg">
<rect width="55" height="55" rx="16.9753" fill="white"/>
<path d="M22.1 35.989L22.111 33.943L29.008 27.761C29.5653 27.2697 29.943 26.8003 30.141 26.353C30.3463 25.9057 30.449 25.4583 30.449 25.011C30.449 24.4463 30.3243 23.9403 30.075 23.493C29.8257 23.0383 29.481 22.679 29.041 22.415C28.601 22.151 28.095 22.019 27.523 22.019C26.9363 22.019 26.412 22.1583 25.95 22.437C25.4953 22.7083 25.1397 23.0713 24.883 23.526C24.6263 23.9807 24.5017 24.472 24.509 25H22.155C22.155 23.9733 22.386 23.075 22.848 22.305C23.3173 21.5277 23.959 20.9227 24.773 20.49C25.587 20.05 26.5183 19.83 27.567 19.83C28.5643 19.83 29.459 20.0573 30.251 20.512C31.043 20.9593 31.6663 21.5753 32.121 22.36C32.583 23.1447 32.814 24.0393 32.814 25.044C32.814 25.77 32.7187 26.386 32.528 26.892C32.3373 27.398 32.0513 27.8673 31.67 28.3C31.2887 28.7327 30.812 29.202 30.24 29.708L24.916 34.46L24.663 33.8H32.814V35.989H22.1Z" fill="black" fill-opacity="0.5"/>
</svg>
