<svg width="81" height="81" viewBox="0 0 81 81" fill="none" xmlns="http://www.w3.org/2000/svg">
<rect width="81" height="81" rx="25" fill="#59A5FF"/>
<path d="M43.3925 30.2638C42.087 30.2638 40.9447 31.4061 40.9447 32.7116C40.9447 34.0171 42.087 35.1594 43.3925 35.1594C44.698 35.1594 45.8403 34.0171 45.8403 32.7116C45.8403 31.4061 44.698 30.2638 43.3925 30.2638ZM52.3677 23.7363H29.5216C26.7474 23.7363 24.626 25.8578 24.626 28.6319V51.4781C24.626 54.2523 26.7474 56.3737 29.5216 56.3737H52.3677C55.1419 56.3737 57.2633 54.2523 57.2633 51.4781V28.6319C57.2633 25.8578 55.1419 23.7363 52.3677 23.7363ZM53.9996 43.1556L50.8991 40.055C48.9408 38.26 45.8403 38.26 44.0452 40.055L42.5765 41.5237L37.8441 36.7913C35.8859 34.9962 32.7853 34.9962 30.9903 36.7913L27.8897 39.8918V28.6319C27.8897 27.6528 28.5425 27.0001 29.5216 27.0001H52.3677C53.3469 27.0001 53.9996 27.6528 53.9996 28.6319V43.1556Z" fill="white"/>
</svg>
