<svg width="81" height="81" viewBox="0 0 81 81" fill="none" xmlns="http://www.w3.org/2000/svg">
<rect width="81" height="81" rx="25" fill="#59A5FF"/>
<path d="M56.4507 37.1382L53.7044 34.639L43.1721 25.0817C42.4169 24.4062 41.4391 24.0327 40.4258 24.0327C39.4125 24.0327 38.4347 24.4062 37.6795 25.0817L27.1747 34.6939L24.4284 37.1931C24.2434 37.3807 24.1164 37.6176 24.0624 37.8755C24.0084 38.1334 24.0297 38.4013 24.1238 38.6474C24.2179 38.8935 24.3807 39.1073 24.593 39.2634C24.8053 39.4194 25.058 39.5111 25.3209 39.5275C25.6687 39.5118 25.9976 39.3645 26.2409 39.1155L26.6941 38.7036V52.8473C26.6941 53.9398 27.1281 54.9876 27.9007 55.7602C28.6732 56.5328 29.721 56.9668 30.8136 56.9668H50.038C51.1306 56.9668 52.1784 56.5328 52.9509 55.7602C53.7235 54.9876 54.1575 53.9398 54.1575 52.8473V38.7585L54.6107 39.1705C54.8625 39.3994 55.1904 39.5266 55.5307 39.5275C55.8076 39.5268 56.0777 39.4424 56.3058 39.2854C56.5338 39.1284 56.7091 38.9061 56.8086 38.6478C56.9081 38.3894 56.9271 38.107 56.8633 37.8376C56.7994 37.5682 56.6556 37.3244 56.4507 37.1382Z" fill="white"/>
<path d="M45.339 37.5254C45.5961 37.2901 45.9383 37.1601 46.2933 37.1626C46.6484 37.1652 46.9885 37.3002 47.2419 37.5392C47.4953 37.7782 47.6422 38.1025 47.6516 38.4435C47.6609 38.7846 47.5321 39.1159 47.2922 39.3674L40.0087 48.1213C39.8835 48.251 39.7323 48.355 39.5643 48.4272C39.3963 48.4994 39.2148 48.5383 39.0308 48.5416C38.8467 48.5449 38.6639 48.5125 38.4932 48.4463C38.3225 48.3801 38.1674 48.2815 38.0373 48.1564L33.2072 43.5146C33.0727 43.3941 32.9648 43.2488 32.89 43.0874C32.8152 42.9261 32.7749 42.7518 32.7717 42.5752C32.7685 42.3985 32.8023 42.223 32.8711 42.0592C32.94 41.8954 33.0425 41.7465 33.1725 41.6216C33.3025 41.4967 33.4573 41.3982 33.6278 41.332C33.7983 41.2658 33.9809 41.2333 34.1647 41.2364C34.3485 41.2396 34.5298 41.2782 34.6978 41.3501C34.8657 41.422 35.0168 41.5257 35.1422 41.655L38.9646 45.3267L45.3043 37.564C45.3157 37.5505 45.3279 37.5376 45.3408 37.5254H45.339Z" fill="#59A5FF"/>
</svg>
