<svg width="81" height="81" viewBox="0 0 81 81" fill="none" xmlns="http://www.w3.org/2000/svg">
<rect width="81" height="81" rx="25" fill="#59A5FF"/>
<path d="M39.2035 45.4089C39.1041 45.3982 39.0039 45.3982 38.9046 45.4089H37.5709C37.2461 45.4088 36.9339 45.5351 36.7007 45.7612C36.4675 45.9873 36.3315 46.2953 36.3215 46.62V54.852C36.3215 55.0161 36.3538 55.1785 36.4166 55.3301C36.4794 55.4817 36.5714 55.6194 36.6874 55.7354C36.8034 55.8515 36.9412 55.9435 37.0928 56.0063C37.2443 56.0691 37.4068 56.1014 37.5709 56.1014H38.9046C39.0686 56.1014 39.2311 56.0691 39.3827 56.0063C39.5342 55.9435 39.672 55.8515 39.788 55.7354C39.904 55.6194 39.996 55.4817 40.0588 55.3301C40.1216 55.1785 40.1539 55.0161 40.1539 54.852V46.62C40.1535 46.341 40.0596 46.0701 39.8874 45.8507C39.7151 45.6312 39.4744 45.4757 39.2035 45.4089ZM60.3661 45.3706H59.0324C58.9331 45.3598 58.8328 45.3598 58.7335 45.3706C58.4561 45.4388 58.2105 45.6 58.0375 45.8274C57.8646 46.0547 57.7748 46.3344 57.783 46.62V54.852C57.783 55.0161 57.8154 55.1785 57.8781 55.3301C57.9409 55.4817 58.033 55.6194 58.149 55.7354C58.265 55.8515 58.4027 55.9435 58.5543 56.0063C58.7059 56.0691 58.8683 56.1014 59.0324 56.1014H60.3661C60.6974 56.1014 61.0152 55.9697 61.2495 55.7354C61.4838 55.5011 61.6155 55.1834 61.6155 54.852V46.62C61.6155 46.4559 61.5831 46.2934 61.5204 46.1419C61.4576 45.9903 61.3655 45.8525 61.2495 45.7365C61.1335 45.6205 60.9958 45.5285 60.8442 45.4657C60.6926 45.4029 60.5302 45.3706 60.3661 45.3706ZM41.6869 55.3349C41.6869 55.5382 41.7676 55.7331 41.9114 55.8769C42.0551 56.0206 42.2501 56.1014 42.4534 56.1014H55.4836C55.6869 56.1014 55.8818 56.0206 56.0256 55.8769C56.1693 55.7331 56.2501 55.5382 56.2501 55.3349V52.269H41.6869V55.3349ZM53.9506 47.67H43.9863C43.3765 47.67 42.7916 47.9123 42.3604 48.3435C41.9292 48.7748 41.6869 49.3596 41.6869 49.9695V50.736H56.2501V49.9695C56.2501 49.3596 56.0078 48.7748 55.5766 48.3435C55.1453 47.9123 54.5605 47.67 53.9506 47.67ZM57.783 39.2387C57.783 38.2223 57.3793 37.2475 56.6606 36.5288C55.9418 35.8101 54.967 35.4063 53.9506 35.4063H43.9863C42.9699 35.4063 41.9951 35.8101 41.2764 36.5288C40.5577 37.2475 40.1539 38.2223 40.1539 39.2387V44.1366C40.2689 44.1912 40.3791 44.2553 40.4835 44.3282C40.5879 44.4012 40.6877 44.4806 40.7824 44.5658C40.8789 44.6482 40.9663 44.7407 41.043 44.8417C41.111 44.9183 41.1725 45.0003 41.227 45.087C41.2441 45.1044 41.2571 45.1253 41.2653 45.1483C41.3341 45.2565 41.3955 45.3692 41.4493 45.4856C41.4993 45.5971 41.5403 45.7124 41.5719 45.8305C41.6084 45.9506 41.6341 46.0737 41.6486 46.1984C41.6601 46.331 41.6601 46.4644 41.6486 46.597V46.9036L41.8708 46.7503L42.1391 46.597L42.4074 46.4667L42.6757 46.3594C42.7523 46.3283 42.8319 46.3052 42.9133 46.2904H42.9976L43.2199 46.2444C43.4711 46.1831 43.7279 46.1472 43.9863 46.1371H53.9506C54.1768 46.1378 54.4025 46.1583 54.6251 46.1984L54.8474 46.2444H54.9317C55.0131 46.2592 55.0927 46.2823 55.1693 46.3134L55.4376 46.4207L55.7059 46.551L55.9741 46.7043L56.2501 46.9036V46.62C56.2463 46.5536 56.2463 46.4871 56.2501 46.4207C56.2463 46.3543 56.2463 46.2878 56.2501 46.2214C56.2464 46.1601 56.2464 46.0987 56.2501 46.0374L56.2961 45.8535C56.3277 45.7354 56.3687 45.6201 56.4187 45.5086C56.4724 45.3922 56.5339 45.2795 56.6027 45.1713C56.6108 45.1483 56.6239 45.1274 56.641 45.11C56.6955 45.0233 56.757 44.9413 56.8249 44.8647C56.9017 44.7637 56.989 44.6712 57.0855 44.5888C57.1794 44.5026 57.2793 44.4232 57.3845 44.3512C57.4881 44.2772 57.5985 44.213 57.7141 44.1596L57.783 39.2387ZM29.4232 40.0052H26.043C26.1476 40.0115 26.2526 40.0115 26.3572 40.0052C27.6436 39.8196 28.8189 39.1734 29.6647 38.1866C30.5106 37.1998 30.9694 35.9395 30.9561 34.6398C29.707 34.6349 28.4953 35.0659 27.5299 35.8585V35.7896C27.533 35.0774 27.3944 34.3718 27.1219 33.7138C26.8495 33.0558 26.4489 32.4587 25.9433 31.9571C25.4352 32.4648 25.0332 33.0684 24.7608 33.733C24.4884 34.3975 24.3511 35.1097 24.3567 35.8279C23.4035 35.0596 22.2162 34.6403 20.9918 34.6398C20.9897 35.9364 21.4526 37.1908 22.2964 38.1753C23.1402 39.1597 24.3091 39.809 25.5907 40.0052C25.7047 40.0256 25.82 40.0384 25.9357 40.0435H22.5248L23.8355 44.6424H18.6924V57.6343H20.2253V53.8019H31.7226V57.6343H33.2556V44.6041H28.1125L29.4232 40.0052ZM27.8902 49.9695H24.0578V48.4365H27.8902V49.9695ZM36.3215 31.5739H40.9204L40.1539 23.1426H30.9561L30.1896 31.5739H34.7885V46.62C34.789 46.1047 34.9326 45.5996 35.2033 45.1611C35.474 44.7227 35.8611 44.3679 36.3215 44.1366V31.5739Z" fill="white"/>
</svg>
