<svg width="81" height="81" viewBox="0 0 81 81" fill="none" xmlns="http://www.w3.org/2000/svg">
<rect width="81" height="81" rx="25" fill="#59A5FF"/>
<path d="M38.5526 49.9016C38.1764 49.9016 37.8156 50.0511 37.5495 50.3171C37.2835 50.5831 37.134 50.944 37.134 51.3202V54.1574C37.134 54.5337 37.2835 54.8945 37.5495 55.1605C37.8156 55.4266 38.1764 55.576 38.5526 55.576C38.9289 55.576 39.2897 55.4266 39.5558 55.1605C39.8218 54.8945 39.9713 54.5337 39.9713 54.1574V51.3202C39.9713 50.944 39.8218 50.5831 39.5558 50.3171C39.2897 50.0511 38.9289 49.9016 38.5526 49.9016ZM32.8782 49.9016C32.502 49.9016 32.1411 50.0511 31.8751 50.3171C31.609 50.5831 31.4596 50.944 31.4596 51.3202V54.1574C31.4596 54.5337 31.609 54.8945 31.8751 55.1605C32.1411 55.4266 32.502 55.576 32.8782 55.576C33.2544 55.576 33.6153 55.4266 33.8813 55.1605C34.1473 54.8945 34.2968 54.5337 34.2968 54.1574V51.3202C34.2968 50.944 34.1473 50.5831 33.8813 50.3171C33.6153 50.0511 33.2544 49.9016 32.8782 49.9016ZM44.2271 49.9016C43.8509 49.9016 43.49 50.0511 43.224 50.3171C42.9579 50.5831 42.8085 50.944 42.8085 51.3202V54.1574C42.8085 54.5337 42.9579 54.8945 43.224 55.1605C43.49 55.4266 43.8509 55.576 44.2271 55.576C44.6033 55.576 44.9642 55.4266 45.2302 55.1605C45.4963 54.8945 45.6457 54.5337 45.6457 54.1574V51.3202C45.6457 50.944 45.4963 50.5831 45.2302 50.3171C44.9642 50.0511 44.6033 49.9016 44.2271 49.9016ZM49.9015 49.9016C49.5253 49.9016 49.1645 50.0511 48.8984 50.3171C48.6324 50.5831 48.4829 50.944 48.4829 51.3202V54.1574C48.4829 54.5337 48.6324 54.8945 48.8984 55.1605C49.1645 55.4266 49.5253 55.576 49.9015 55.576C50.2778 55.576 50.6386 55.4266 50.9047 55.1605C51.1707 54.8945 51.3202 54.5337 51.3202 54.1574V51.3202C51.3202 50.944 51.1707 50.5831 50.9047 50.3171C50.6386 50.0511 50.2778 49.9016 49.9015 49.9016ZM58.4132 30.041H24.3665C23.614 30.041 22.8924 30.3399 22.3603 30.872C21.8282 31.4041 21.5293 32.1258 21.5293 32.8782V45.6458C21.5293 46.3982 21.8282 47.1199 22.3603 47.652C22.8924 48.1841 23.614 48.483 24.3665 48.483H58.4132C59.1657 48.483 59.8874 48.1841 60.4194 47.652C60.9515 47.1199 61.2504 46.3982 61.2504 45.6458V32.8782C61.2504 32.1258 60.9515 31.4041 60.4194 30.872C59.8874 30.3399 59.1657 30.041 58.4132 30.041ZM54.1574 44.2271H28.6224C28.2461 44.2271 27.8853 44.0777 27.6192 43.8116C27.3532 43.5456 27.2037 43.1848 27.2037 42.8085C27.2037 42.4323 27.3532 42.0715 27.6192 41.8054C27.8853 41.5394 28.2461 41.3899 28.6224 41.3899H54.1574C54.5336 41.3899 54.8945 41.5394 55.1605 41.8054C55.4265 42.0715 55.576 42.4323 55.576 42.8085C55.576 43.1848 55.4265 43.5456 55.1605 43.8116C54.8945 44.0777 54.5336 44.2271 54.1574 44.2271Z" fill="white"/>
</svg>
