<svg width="81" height="81" viewBox="0 0 81 81" fill="none" xmlns="http://www.w3.org/2000/svg">
<rect width="81" height="81" rx="25" fill="#59A5FF"/>
<path d="M58.7789 50.795C57.422 50.795 56.3176 51.9021 56.3176 53.2627C56.3176 53.6068 56.039 53.8858 55.6946 53.8858C55.3502 53.8858 55.0715 53.6068 55.0715 53.2627V27.9268H27.5317V53.2627C27.5317 53.6068 27.2527 53.8858 26.9086 53.8858C26.5645 53.8858 26.2855 53.6068 26.2855 53.2627C26.2855 51.9021 25.1815 50.795 23.8246 50.795C22.4674 50.795 21.3633 51.9021 21.3633 53.2627C21.3633 54.6196 22.4674 55.7237 23.8246 55.7237H58.7789C60.1358 55.7237 61.2402 54.6196 61.2402 53.2627C61.2402 51.9021 60.1358 50.795 58.7789 50.795ZM53.0094 44.3063C53.0094 44.6504 52.7307 44.9293 52.3863 44.9293C52.0419 44.9293 51.7632 44.6504 51.7632 44.3063V41.5246H49.2752C48.9308 41.5246 48.6521 41.2456 48.6521 40.9015C48.6521 40.5574 48.9308 40.2785 49.2752 40.2785H51.7632V34.4803H45.3554V40.2785H46.8291C47.1735 40.2785 47.4522 40.5574 47.4522 40.9015C47.4522 41.2456 47.1735 41.5246 46.8291 41.5246H42.6352C42.2911 41.5246 42.0121 41.2456 42.0121 40.9015C42.0121 40.5574 42.2911 40.2785 42.6352 40.2785H44.1092V34.4803H30.8463V40.2785H40.2594C40.6035 40.2785 40.8825 40.5574 40.8825 40.9015C40.8825 41.2456 40.6035 41.5246 40.2594 41.5246H30.8463V49.1695H39.0534V45.1539H37.378C37.0339 45.1539 36.7549 44.8749 36.7549 44.5308C36.7549 44.1867 37.0339 43.9077 37.378 43.9077H39.6765C40.0206 43.9077 40.2996 44.1867 40.2996 44.5308V49.1695H44.798C45.1424 49.1695 45.4211 49.4485 45.4211 49.7926C45.4211 50.1367 45.1424 50.4156 44.798 50.4156H30.2233C29.8792 50.4156 29.6002 50.1367 29.6002 49.7926V33.8572C29.6002 33.5131 29.8792 33.2342 30.2233 33.2342H52.3863C52.7307 33.2342 53.0094 33.5131 53.0094 33.8572V44.3063Z" fill="white"/>
<path d="M58.7789 24.0327C57.422 24.0327 56.3176 25.1368 56.3176 26.494C56.3176 31.558 56.3176 39.6489 56.3176 50.4873C56.973 49.9038 57.8352 49.5487 58.7789 49.5487C59.7036 49.5487 60.6019 49.9179 61.2402 50.4873V26.494C61.2402 25.1591 60.1539 24.0327 58.7789 24.0327ZM23.8246 49.5487C24.768 49.5487 25.6305 49.9038 26.2855 50.4873C26.2855 39.6487 26.2855 31.5691 26.2855 26.494C26.2855 25.1642 25.2044 24.0327 23.8246 24.0327C22.4674 24.0327 21.3633 25.1368 21.3633 26.494V50.4873C21.3738 50.478 21.3865 50.4714 21.3971 50.4622C22.0544 49.8897 22.9194 49.5487 23.8246 49.5487Z" fill="white"/>
</svg>
