<svg width="16" height="16" viewBox="0 0 16 16" fill="none" xmlns="http://www.w3.org/2000/svg">
<path fill-rule="evenodd" clip-rule="evenodd" d="M8 0C3.582 0 0 3.582 0 8C0 12.418 3.582 16 8 16C12.418 16 16 12.418 16 8C16 3.582 12.418 0 8 0ZM11.72 6.633L7.662 10.69C7.288 11.064 6.683 11.064 6.309 10.69L4.28 8.662C3.906 8.289 3.906 7.683 4.28 7.309C4.654 6.935 5.259 6.935 5.633 7.309L6.986 8.662L10.368 5.28C10.742 4.906 11.347 4.906 11.721 5.28C12.095 5.654 12.094 6.259 11.72 6.633Z" fill="#04BC00"/>
</svg>
