<svg width="64" height="64" viewBox="0 0 64 64" fill="none" xmlns="http://www.w3.org/2000/svg">
<rect width="64" height="64" rx="20" fill="#F6F6F6"/>
<path d="M43.3203 43.3204H20.6797C20.6797 38.8283 23.2964 34.9464 27.0894 33.1178C26.3696 32.4461 25.7959 31.6334 25.4041 30.7303C25.0122 29.8271 24.8106 28.853 24.8118 27.8685C24.8118 23.8978 28.0304 20.6792 32.0006 20.6792C35.9707 20.6792 39.1893 23.8978 39.1893 27.8685C39.1893 29.9396 38.3129 31.806 36.9112 33.1178C40.7036 34.9464 43.3203 38.8283 43.3203 43.3204ZM39.1224 32.7718C40.5606 33.7441 41.7852 34.9997 42.7213 36.4618C44.0329 38.5087 44.7288 40.8893 44.726 43.3204H49.9994C49.9994 39.4498 47.7449 36.1063 44.4779 34.5302C45.098 33.9515 45.5922 33.2513 45.9297 32.4732C46.2673 31.6951 46.441 30.8558 46.4399 30.0077C46.4399 26.5866 43.6668 23.8134 40.2457 23.8134C40.0719 23.8134 39.9009 23.8213 39.7304 23.8354C40.3598 25.0616 40.6871 26.4205 40.685 27.7988C40.6886 29.5778 40.1429 31.3146 39.1224 32.7718ZM21.2776 36.4618C22.2144 35 23.4393 33.7444 24.8776 32.7718C23.857 31.3145 23.311 29.5779 23.3139 27.7988C23.3139 26.3711 23.6587 25.0234 24.269 23.8354C24.0974 23.821 23.9254 23.8136 23.7532 23.8134C20.3321 23.8134 17.5595 26.5866 17.5595 30.0077C17.5595 31.7925 18.3144 33.4001 19.5221 34.5302C16.2545 36.1063 14 39.4498 14 43.3204H19.2734C19.2734 40.8797 19.9664 38.5082 21.2776 36.4618Z" fill="#59A5FF"/>
</svg>
