<svg width="64" height="64" viewBox="0 0 64 64" fill="none" xmlns="http://www.w3.org/2000/svg">
<rect width="64" height="64" rx="20" fill="#F6F6F6"/>
<path d="M32 47.0007C31.6874 47.0006 31.3827 46.9028 31.1285 46.7209L25.6529 42.8098C23.9059 41.5594 22.482 39.9108 21.4989 38.0005C20.5159 36.0902 20.0021 33.9733 20 31.8249V20.6394C20.0001 20.4162 20.05 20.1959 20.146 19.9944C20.2421 19.793 20.3818 19.6155 20.5551 19.4749C20.7285 19.3343 20.9309 19.2341 21.1479 19.1816C21.3648 19.1292 21.5907 19.1258 21.8091 19.1716C23.4121 19.5084 25.067 19.5134 26.672 19.1864C28.277 18.8594 29.7981 18.2073 31.1416 17.2703C31.3933 17.0943 31.6929 17 32 17C32.3071 17 32.6067 17.0943 32.8584 17.2703C34.2018 18.2076 35.7229 18.8598 37.3279 19.1868C38.933 19.5138 40.588 19.5086 42.191 19.1716C42.4094 19.1257 42.6353 19.1292 42.8522 19.1816C43.0691 19.2341 43.2716 19.3343 43.4449 19.4749C43.6182 19.6155 43.7579 19.793 43.854 19.9944C43.95 20.1959 43.9999 20.4162 44 20.6394V31.8249C43.998 33.9732 43.4841 36.0902 42.5011 38.0004C41.5181 39.9107 40.0941 41.5593 38.3472 42.8097L32.8716 46.7209C32.6174 46.9028 32.3126 47.0006 32 47.0007Z" fill="#59A5FF"/>
<path d="M30.2744 36.0508C30.0774 36.0508 29.8824 36.012 29.7004 35.9366C29.5185 35.8612 29.3531 35.7507 29.2139 35.6113L26.8145 33.2105C26.5361 32.9286 26.3806 32.5481 26.3818 32.1519C26.3831 31.7558 26.541 31.3762 26.8211 31.0961C27.1012 30.816 27.4808 30.658 27.8769 30.6568C28.2731 30.6555 28.6536 30.811 28.9355 31.0894L30.2744 32.4297L34.3145 28.3897C34.4535 28.2491 34.6189 28.1374 34.8012 28.061C34.9835 27.9845 35.1791 27.9449 35.3768 27.9443C35.5745 27.9438 35.7703 27.9823 35.9531 28.0577C36.1358 28.1331 36.3018 28.2439 36.4416 28.3837C36.5814 28.5234 36.6922 28.6895 36.7675 28.8722C36.8429 29.055 36.8814 29.2508 36.8809 29.4485C36.8803 29.6462 36.8407 29.8418 36.7642 30.0241C36.6878 30.2064 36.5761 30.3718 36.4355 30.5108L31.3349 35.6114C31.1957 35.7507 31.0304 35.8612 30.8484 35.9366C30.6664 36.012 30.4714 36.0508 30.2744 36.0508Z" fill="#F6F6F6"/>
</svg>
