<svg width="64" height="64" viewBox="0 0 64 64" fill="none" xmlns="http://www.w3.org/2000/svg">
<rect width="64" height="64" rx="20" fill="#F6F6F6"/>
<g clip-path="url(#clip0_1_6723)">
<path d="M38.6491 39.049C38.5291 38.9289 38.3866 38.8337 38.2298 38.7687C38.073 38.7036 37.905 38.6702 37.7352 38.6702C37.5655 38.6702 37.3974 38.7036 37.2406 38.7687C37.0838 38.8337 36.9413 38.9289 36.8214 39.049C34.6384 41.2319 34.3155 41.8519 33.3597 41.5936C27.4568 39.9855 23.9241 36.1944 22.3805 30.6144C22.321 30.3945 22.3208 30.1628 22.3798 29.9428C22.4387 29.7227 22.5549 29.5222 22.7164 29.3615L24.9251 27.1528C25.0452 27.0328 25.1405 26.8904 25.2055 26.7335C25.2705 26.5767 25.3039 26.4087 25.3039 26.2389C25.3039 26.0692 25.2705 25.9011 25.2055 25.7443C25.1405 25.5875 25.0452 25.445 24.9251 25.3251L21.2955 21.6955C21.1756 21.5754 21.0331 21.4801 20.8763 21.4151C20.7195 21.3501 20.5514 21.3167 20.3817 21.3167C20.2119 21.3167 20.0438 21.3501 19.887 21.4151C19.7302 21.4801 19.5878 21.5754 19.4678 21.6955C17.892 23.2778 16.7424 24.1044 16.6455 25.9063C16.518 28.7568 16.9856 31.6027 18.0183 34.2626C19.0511 36.9225 20.6264 39.3382 22.6441 41.3559C24.6617 43.3735 27.0774 44.9489 29.7374 45.9817C32.3973 47.0144 35.2431 47.4819 38.0936 47.3544C39.8632 47.3544 40.9547 45.8949 42.3045 44.5515C42.4246 44.4316 42.5198 44.2891 42.5849 44.1323C42.6499 43.9755 42.6833 43.8074 42.6833 43.6377C42.6833 43.4679 42.6499 43.2998 42.5849 43.143C42.5198 42.9862 42.4246 42.8438 42.3045 42.7238L38.6491 39.049Z" fill="#59A5FF"/>
<path d="M37.9578 17.646C29.9817 17.646 26.5265 25.396 32.7911 29.1935V33.7918L36.1688 30.4141C41.2192 31.2666 46.3536 28.3539 46.3536 24.1043C46.3536 20.5393 42.5949 17.646 37.9578 17.646ZM37.312 24.1043C37.312 24.2756 37.2439 24.4399 37.1228 24.561C37.0017 24.6821 36.8374 24.7502 36.6661 24.7502H34.7286V26.0418H36.6661C36.8374 26.0418 37.0017 26.1099 37.1228 26.231C37.2439 26.3521 37.312 26.5164 37.312 26.6877C37.312 26.8589 37.2439 27.0232 37.1228 27.1443C37.0017 27.2655 36.8374 27.3335 36.6661 27.3335H34.0828C33.9115 27.3335 33.7472 27.2655 33.6261 27.1443C33.505 27.0232 33.437 26.8589 33.437 26.6877V24.1043C33.437 23.933 33.505 23.7688 33.6261 23.6477C33.7472 23.5265 33.9115 23.4585 34.0828 23.4585H36.0203V22.1668H34.0828C33.9115 22.1668 33.7472 22.0988 33.6261 21.9777C33.505 21.8566 33.437 21.6923 33.437 21.521C33.437 21.3497 33.505 21.1854 33.6261 21.0643C33.7472 20.9432 33.9115 20.8752 34.0828 20.8752H36.6661C36.8374 20.8752 37.0017 20.9432 37.1228 21.0643C37.2439 21.1854 37.312 21.3497 37.312 21.521V24.1043ZM42.4786 26.6877C42.4786 26.8589 42.4106 27.0232 42.2895 27.1443C42.1683 27.2655 42.0041 27.3335 41.8328 27.3335C41.6615 27.3335 41.4972 27.2655 41.3761 27.1443C41.255 27.0232 41.187 26.8589 41.187 26.6877V24.7502H39.2495C39.0782 24.7502 38.9139 24.6821 38.7928 24.561C38.6717 24.4399 38.6036 24.2756 38.6036 24.1043V21.521C38.6036 21.3497 38.6717 21.1854 38.7928 21.0643C38.9139 20.9432 39.0782 20.8752 39.2495 20.8752C39.4207 20.8752 39.585 20.9432 39.7061 21.0643C39.8272 21.1854 39.8953 21.3497 39.8953 21.521V23.4585H41.187V21.521C41.187 21.3497 41.255 21.1854 41.3761 21.0643C41.4972 20.9432 41.6615 20.8752 41.8328 20.8752C42.0041 20.8752 42.1683 20.9432 42.2895 21.0643C42.4106 21.1854 42.4786 21.3497 42.4786 21.521V26.6877Z" fill="#59A5FF"/>
</g>
<defs>
<clipPath id="clip0_1_6723">
<rect width="31" height="31" fill="white" transform="translate(16 17)"/>
</clipPath>
</defs>
</svg>
