<svg width="65" height="64" viewBox="0 0 65 64" fill="none" xmlns="http://www.w3.org/2000/svg">
<rect x="0.5" width="64" height="64" rx="20" fill="#F6F6F6"/>
<path d="M45.416 38.9582H19.5827C18.8077 38.9582 18.291 39.4748 18.291 40.2498C18.291 41.0248 18.8077 41.5415 19.5827 41.5415H45.416C46.191 41.5415 46.7077 41.0248 46.7077 40.2498C46.7077 39.4748 46.191 38.9582 45.416 38.9582ZM45.416 44.1248H19.5827C18.8077 44.1248 18.291 44.6415 18.291 45.4165C18.291 46.1915 18.8077 46.7082 19.5827 46.7082H45.416C46.191 46.7082 46.7077 46.1915 46.7077 45.4165C46.7077 44.6415 46.191 44.1248 45.416 44.1248ZM42.8327 18.2915H22.166C19.9702 18.2915 18.291 19.9707 18.291 22.1665V32.4998C18.291 34.6957 19.9702 36.3748 22.166 36.3748H42.8327C45.0285 36.3748 46.7077 34.6957 46.7077 32.4998V22.1665C46.7077 19.9707 45.0285 18.2915 42.8327 18.2915ZM24.7493 28.6248C23.9743 28.6248 23.4577 28.1082 23.4577 27.3332C23.4577 26.5582 23.9743 26.0415 24.7493 26.0415C25.5243 26.0415 26.041 26.5582 26.041 27.3332C26.041 28.1082 25.5243 28.6248 24.7493 28.6248ZM32.4993 29.9165C31.0785 29.9165 29.916 28.754 29.916 27.3332C29.916 25.9123 31.0785 24.7498 32.4993 24.7498C33.9202 24.7498 35.0827 25.9123 35.0827 27.3332C35.0827 28.754 33.9202 29.9165 32.4993 29.9165ZM40.2493 28.6248C39.4743 28.6248 38.9577 28.1082 38.9577 27.3332C38.9577 26.5582 39.4743 26.0415 40.2493 26.0415C41.0243 26.0415 41.541 26.5582 41.541 27.3332C41.541 28.1082 41.0243 28.6248 40.2493 28.6248Z" fill="#59A5FF"/>
</svg>
