<svg width="64" height="64" viewBox="0 0 64 64" fill="none" xmlns="http://www.w3.org/2000/svg">
<rect width="64" height="64" rx="20" fill="#F6F6F6"/>
<path d="M43.7327 32.9999L30.3993 28.9066C30.1666 28.8375 29.9194 28.8333 29.6844 28.8943C29.4495 28.9554 29.2356 29.0795 29.066 29.2532C28.8969 29.4257 28.7778 29.6408 28.7215 29.8756C28.6651 30.1104 28.6736 30.3562 28.746 30.5866L33.026 43.7599C33.1099 44.0102 33.2661 44.23 33.475 44.3914C33.6839 44.5528 33.936 44.6486 34.1993 44.6666H34.306C34.5536 44.6646 34.7958 44.5937 35.0054 44.4618C35.215 44.3299 35.3837 44.1423 35.4927 43.9199L38.2927 38.2666L43.9993 35.4666C44.2373 35.3466 44.4339 35.1582 44.5637 34.9255C44.6935 34.6928 44.7506 34.4265 44.7276 34.161C44.7047 33.8955 44.6027 33.643 44.4349 33.4361C44.267 33.2291 44.041 33.0772 43.786 32.9999H43.7327ZM24.3727 22.5066C24.1216 22.2555 23.7811 22.1144 23.426 22.1144C23.0709 22.1144 22.7304 22.2555 22.4793 22.5066C22.2283 22.7576 22.0872 23.0982 22.0872 23.4532C22.0872 23.8083 22.2283 24.1488 22.4793 24.3999L26.1593 28.0666C26.2839 28.1901 26.4317 28.2879 26.5941 28.3543C26.7566 28.4206 26.9305 28.4542 27.106 28.4532C27.4419 28.4415 27.7609 28.3034 27.9993 28.0666C28.1243 27.9426 28.2235 27.7951 28.2912 27.6327C28.3589 27.4702 28.3937 27.2959 28.3937 27.1199C28.3937 26.9439 28.3589 26.7696 28.2912 26.6071C28.2235 26.4446 28.1243 26.2972 27.9993 26.1732L24.3727 22.5066ZM25.0793 32.3732C25.3989 32.3773 25.7094 32.2665 25.9541 32.0609C26.1988 31.8554 26.3616 31.5687 26.4127 31.2532C26.4708 30.9069 26.3901 30.5517 26.1878 30.2646C25.9856 29.9775 25.6783 29.7818 25.3327 29.7199L20.146 28.9066C19.8022 28.8644 19.4554 28.9577 19.1791 29.1668C18.9029 29.3758 18.7189 29.6842 18.666 30.0266C18.6123 30.3747 18.6985 30.73 18.9058 31.0148C19.1132 31.2996 19.4248 31.4908 19.7727 31.5466L24.906 32.3599L25.0793 32.3732ZM25.146 34.2132L20.5193 36.5599C20.2536 36.696 20.0413 36.9174 19.9163 37.1886C19.7914 37.4597 19.761 37.765 19.8302 38.0554C19.8993 38.3459 20.064 38.6047 20.2977 38.7904C20.5315 38.9762 20.8208 39.0781 21.1193 39.0799C21.3287 39.0836 21.5353 39.0331 21.7193 38.9332L26.3593 36.5866C26.5205 36.5101 26.6647 36.402 26.7834 36.2688C26.9021 36.1356 26.9928 35.9799 27.0502 35.811C27.1076 35.642 27.1306 35.4633 27.1176 35.2854C27.1047 35.1074 27.0562 34.9339 26.975 34.775C26.8938 34.6161 26.7815 34.4752 26.6448 34.3605C26.5081 34.2458 26.3498 34.1598 26.1793 34.1074C26.0087 34.055 25.8294 34.0374 25.6519 34.0555C25.4744 34.0737 25.3024 34.1273 25.146 34.2132ZM34.8127 27.0266C35.0036 27.1206 35.2132 27.1707 35.426 27.1732C35.6722 27.1725 35.9134 27.1036 36.1229 26.9741C36.3324 26.8447 36.5019 26.6598 36.6127 26.4399L38.9727 21.8266C39.0573 21.6688 39.1093 21.4955 39.1255 21.3172C39.1417 21.1389 39.1219 20.9592 39.0671 20.7887C39.0124 20.6182 38.9239 20.4605 38.8068 20.325C38.6898 20.1895 38.5467 20.0789 38.386 19.9999C38.0727 19.8408 37.7093 19.8117 37.3748 19.9191C37.0402 20.0264 36.7615 20.2615 36.5993 20.5732L34.2393 25.2266C34.1585 25.3823 34.1091 25.5525 34.0942 25.7274C34.0793 25.9023 34.099 26.0784 34.1522 26.2456C34.2055 26.4128 34.2913 26.5679 34.4046 26.7019C34.5179 26.8359 34.6566 26.9463 34.8127 27.0266ZM31.0527 26.4666H31.266C31.4396 26.439 31.606 26.3774 31.7557 26.2854C31.9053 26.1933 32.0353 26.0725 32.1382 25.93C32.241 25.7875 32.3147 25.6261 32.3549 25.455C32.3952 25.284 32.4012 25.1066 32.3727 24.9332L31.5593 19.8132C31.5313 19.6381 31.4691 19.4703 31.3762 19.3192C31.2833 19.1682 31.1616 19.0369 31.018 18.9329C30.8744 18.8289 30.7117 18.7542 30.5392 18.7131C30.3667 18.672 30.1878 18.6652 30.0127 18.6932C29.8376 18.7212 29.6697 18.7835 29.5187 18.8764C29.3676 18.9693 29.2364 19.091 29.1324 19.2346C29.0284 19.3782 28.9537 19.5409 28.9125 19.7134C28.8714 19.8859 28.8647 20.0648 28.8927 20.2399L29.7327 25.3332C29.7806 25.6489 29.9401 25.9369 30.1824 26.1448C30.4246 26.3528 30.7334 26.467 31.0527 26.4666Z" fill="#59A5FF"/>
</svg>
