<svg width="66" height="66" viewBox="0 0 66 66" fill="none" xmlns="http://www.w3.org/2000/svg">
<circle cx="33" cy="33" r="33" fill="#F6F6F6"/>
<path d="M45.9372 31.4203C45.8754 31.2781 45.7714 31.1564 45.6383 31.0706C45.5051 30.9847 45.3486 30.9385 45.1883 30.9375H42.7497C42.7497 24.9063 37.6467 20 31.3773 20C28.6548 19.9923 26.0211 20.9306 23.9609 22.6422C23.8788 22.7139 23.8128 22.801 23.7669 22.898C23.7209 22.9951 23.6961 23.1001 23.6938 23.2067C23.6915 23.3133 23.7119 23.4193 23.7536 23.518C23.7953 23.6168 23.8576 23.7064 23.9365 23.7813L26.2581 26.0157C26.5505 26.2969 27.0054 26.2922 27.3287 26.0453C28.2863 25.315 29.4384 24.8588 30.6531 24.7291C31.8677 24.5994 33.0958 24.8015 34.1966 25.3121C35.2974 25.8226 36.2264 26.6212 36.8771 27.6161C37.5278 28.611 37.8739 29.7621 37.8758 30.9375H35.4405C35.2798 30.9375 35.1226 30.9834 34.989 31.0694C34.8554 31.1553 34.7514 31.2775 34.69 31.4203C34.6286 31.5632 34.6126 31.7203 34.6441 31.8719C34.6756 32.0235 34.7532 32.1627 34.867 32.2719L39.7393 36.9578C39.8916 37.1043 40.0982 37.1865 40.3136 37.1865C40.529 37.1865 40.7355 37.1043 40.8879 36.9578L45.7601 32.2719C45.8747 32.1632 45.9528 32.024 45.9844 31.8722C46.0159 31.7204 45.9995 31.563 45.9372 31.4203ZM39.7425 38.9844C39.4501 38.7031 38.9952 38.7078 38.6719 38.9562C37.7142 39.6857 36.5622 40.1411 35.3479 40.2703C34.1336 40.3994 32.9061 40.197 31.8058 39.6864C30.7055 39.1757 29.777 38.3774 29.1266 37.3827C28.4762 36.3881 28.1301 35.2375 28.128 34.0625H30.5634C30.7239 34.0617 30.8806 34.0154 31.0141 33.9296C31.1475 33.8438 31.2518 33.7221 31.3139 33.5797C31.3762 33.437 31.3926 33.2796 31.3611 33.1278C31.3295 32.976 31.2514 32.8368 31.1368 32.7281L26.2646 28.0406C26.1122 27.8942 25.9057 27.8119 25.6903 27.8119C25.4749 27.8119 25.2683 27.8942 25.116 28.0406L20.2437 32.7281C20.1475 32.8182 20.0762 32.93 20.0363 33.0534C19.9965 33.1767 19.9893 33.3077 20.0154 33.4343C20.0416 33.561 20.1002 33.6794 20.1861 33.7787C20.2719 33.8781 20.3822 33.9552 20.5069 34.0031C20.6048 34.0421 20.7096 34.0623 20.8156 34.0625H23.2541C23.2541 40.0922 28.3555 45 34.6266 45C37.3497 45.0075 39.9841 44.0686 42.0446 42.3562C42.1266 42.2844 42.1925 42.1973 42.2382 42.1002C42.284 42.0031 42.3087 41.898 42.3108 41.7914C42.313 41.6848 42.2925 41.5789 42.2506 41.4802C42.2087 41.3814 42.1464 41.2919 42.0674 41.2172L39.7425 38.9844Z" fill="#05BC01" fill-opacity="0.8"/>
</svg>
