<svg width="66" height="66" viewBox="0 0 66 66" fill="none" xmlns="http://www.w3.org/2000/svg">
<circle cx="33" cy="33" r="33" fill="#F6F6F6"/>
<path d="M33 31.5556C34.1302 31.5556 35.235 31.2167 36.1747 30.5818C37.1144 29.947 37.8468 29.0446 38.2793 27.9888C38.7118 26.9331 38.825 25.7714 38.6045 24.6506C38.384 23.5298 37.8398 22.5003 37.0406 21.6923C36.2415 20.8842 35.2233 20.334 34.1148 20.111C33.0063 19.8881 31.8574 20.0025 30.8132 20.4398C29.7691 20.8771 28.8766 21.6177 28.2487 22.5678C27.6209 23.518 27.2857 24.635 27.2857 25.7778C27.2857 27.3101 27.8878 28.7797 28.9594 29.8633C30.031 30.9468 31.4845 31.5556 33 31.5556ZM41.5714 46C41.9503 46 42.3137 45.8478 42.5816 45.5769C42.8495 45.306 43 44.9386 43 44.5556C43 41.8739 41.9464 39.3021 40.0711 37.4059C38.1957 35.5097 35.6522 34.4444 33 34.4444C30.3478 34.4444 27.8043 35.5097 25.9289 37.4059C24.0536 39.3021 23 41.8739 23 44.5556C23 44.9386 23.1505 45.306 23.4184 45.5769C23.6863 45.8478 24.0497 46 24.4286 46H41.5714Z" fill="#05BC01" fill-opacity="0.8"/>
</svg>
