<svg width="66" height="66" viewBox="0 0 66 66" fill="none" xmlns="http://www.w3.org/2000/svg">
<circle cx="33" cy="33" r="33" fill="#F6F6F6"/>
<path d="M33.5 20C31.0277 20 28.611 20.7331 26.5554 22.1066C24.4998 23.4801 22.8976 25.4324 21.9515 27.7165C21.0054 30.0005 20.7579 32.5139 21.2402 34.9386C21.7225 37.3634 22.913 39.5907 24.6612 41.3388C26.4093 43.087 28.6366 44.2775 31.0614 44.7598C33.4861 45.2421 35.9995 44.9946 38.2835 44.0485C40.5676 43.1024 42.5199 41.5002 43.8934 39.4446C45.2669 37.389 46 34.9723 46 32.5C46 29.1848 44.683 26.0054 42.3388 23.6612C39.9946 21.317 36.8152 20 33.5 20ZM38.0455 33.6364H33.5C33.1986 33.6364 32.9096 33.5166 32.6965 33.3035C32.4834 33.0904 32.3636 32.8014 32.3636 32.5V25.6818C32.3636 25.3804 32.4834 25.0914 32.6965 24.8783C32.9096 24.6652 33.1986 24.5455 33.5 24.5455C33.8014 24.5455 34.0904 24.6652 34.3035 24.8783C34.5166 25.0914 34.6364 25.3804 34.6364 25.6818V31.3636H38.0455C38.3468 31.3636 38.6359 31.4834 38.849 31.6965C39.0621 31.9096 39.1818 32.1986 39.1818 32.5C39.1818 32.8014 39.0621 33.0904 38.849 33.3035C38.6359 33.5166 38.3468 33.6364 38.0455 33.6364Z" fill="#05BC01" fill-opacity="0.8"/>
</svg>
